# xmcd
#
# Track frame offsets: 
#        150
#        19830
#        38023
#        50315
#        68026
#        85670
#        98802
#        114606
#        128306
#        144963
#        161567
#        174838
#        196563
#        209834
#        229457
#
# Disc length: 3205 seconds
#
# Revision: 0
# Processed by: cddbd v1.5.2PL0 Copyright (c) Steve Scherf et al.
# Submitted via: ExactAudioCopy v1.3
#
DISCID=bb0c830f
DTITLE=Tiger City Jukes - White Line Fever
DYEAR=1997
DGENRE=Electric Blues
TTITLE0=Talkin' Bout You
TTITLE1=All Good Things
TTITLE2=Please Stop Your Crying
TTITLE3=Little Red Rooster
TTITLE4=Unfortunately Yours
TTITLE5=White Line Fever
TTITLE6=Tomcat
TTITLE7=I've Bought My Ticket
TTITLE8=Hot Spot
TTITLE9=Little Queen Of Spades
TTITLE10=Hideout Hotel
TTITLE11=My Love Will Never Die
TTITLE12=Mine All Mine
TTITLE13=Look On Yonder Wall
TTITLE14=Southern Women
EXTD=
EXTT0=
EXTT1=
EXTT2=
EXTT3=
EXTT4=
EXTT5=
EXTT6=
EXTT7=
EXTT8=
EXTT9=
EXTT10=
EXTT11=
EXTT12=
EXTT13=
EXTT14=
PLAYORDER=
